# xmcd
#
# Track frame offsets: 
#        150
#        25829
#        40082
#        55705
#        78950
#        110605
#        122674
#        149573
#        166009
#        195258
#        215842
#        233862
#
# Disc length: 3362 seconds
#
# Revision: 0
# Processed by: cddbd v1.5.2PL0 Copyright (c) Steve Scherf et al.
# Submitted via: ExactAudioCopy v1.3
#
DISCID=9c0d200c
DTITLE=Popa Chubby - The Catfish
DYEAR=2016
DGENRE=Blues Rock
TTITLE0=Going Downtown
TTITLE1=Good Thing
TTITLE2=Bye Bye Love
TTITLE3=Cry Till It's A Dull Ache
TTITLE4=Wes Is More
TTITLE5=Motorhead Saved My Life
TTITLE6=Blues For Charlie
TTITLE7=Dirty Diesel
TTITLE8=Slow Down Sugar
TTITLE9=Put A Grown Man To Shame
TTITLE10=The Catfish
TTITLE11=C'mon In My Kitchen
EXTD=
EXTT0=
EXTT1=
EXTT2=
EXTT3=
EXTT4=
EXTT5=
EXTT6=
EXTT7=
EXTT8=
EXTT9=
EXTT10=
EXTT11=
PLAYORDER=
